<svg width="52" height="52" viewBox="0 0 52 52" fill="none" xmlns="http://www.w3.org/2000/svg">
<g id="Green" clip-path="url(#clip0_46_131)">
<path id="Vector" fill-rule="evenodd" clip-rule="evenodd" d="M52 26C52 40.3975 40.3975 52 26 52C11.6025 52 0 40.3975 0 26C0 11.6025 11.6025 0 26 0C40.3975 0 52 11.6025 52 26Z" fill="#5DC560"/>
<path id="Vector_2" d="M16.2175 9.75C15.9949 9.75 15.8844 9.97262 15.8844 10.309V14.2171C15.8844 14.5519 16.107 14.7761 16.4418 14.7761C16.7782 14.7761 17.0008 14.4414 17.0008 14.2171V10.8664H20.3515V14.3292C20.3515 14.664 20.5741 14.8882 20.9089 14.8882C21.2453 14.8882 21.4679 14.5519 21.4679 14.3292V13.2113H23.7023V15.2214C23.478 15.5561 23.8128 16.0014 24.2597 16.0014H25.935V24.3783H24.2613C24.1475 24.3783 24.037 24.492 23.9249 24.6025C23.7023 24.4904 23.7023 24.6025 23.7023 24.7146V27.6201C23.478 27.6201 23.3675 27.6201 23.1433 27.5064C22.5527 27.3946 21.9464 27.3946 21.3558 27.5064V24.8267C21.3558 24.492 21.1331 24.2694 20.7984 24.2694H20.6863C20.3515 24.2694 20.1273 24.6041 20.2394 24.8267V27.6201C19.0475 27.7852 17.9048 28.2042 16.8886 28.8486V24.7163C16.8886 24.3799 16.5539 24.0451 16.2192 24.1573C15.9949 24.2694 15.8844 24.6041 15.8844 24.8267V29.965C15.4375 30.4119 15.1028 30.9692 14.7664 31.5283V17.5679H17.1129C17.1129 17.9026 17.1129 18.3495 17.2234 18.6842C17.6703 20.4718 19.5699 21.5881 21.3558 21.0308C23.1433 20.5839 24.2597 18.6842 23.7023 16.8984C23.7023 16.7846 23.5902 16.7846 23.5902 16.6741L23.478 16.562H14.0969C13.7622 16.4515 13.65 16.7863 13.65 17.0089V33.8731C13.65 33.8731 13.65 33.9869 13.7621 33.9869C13.7621 34.0974 13.8743 34.2095 13.8743 34.2095C13.9848 34.32 14.209 34.32 14.3211 34.32H14.7664C16.5539 33.3158 18.2293 33.4262 20.0152 33.9852C21.0227 34.32 22.0269 34.9911 22.9206 35.438C20.2394 35.3243 17.4476 35.1016 15.1028 36.777C14.8785 37.0012 14.7664 37.336 14.989 37.5586C17.1145 40.1278 20.4653 42.25 25.4898 42.25C29.1753 42.25 31.8565 41.0215 33.8666 39.1235C35.8768 37.2239 37.2174 34.6547 38.3354 31.863C38.4459 31.4161 37.999 30.9692 37.5521 31.1935H37.1053V20.3596C37.1053 20.0249 36.7705 19.8022 36.5463 19.8022H33.7545V14.7761C33.7545 14.4414 33.4198 14.2171 33.1972 14.2171H26.2714C26.0488 14.2171 25.9367 14.5519 25.9367 14.7761H24.8203V12.5417C24.8203 12.207 24.4855 11.9844 24.2613 11.9844H21.4695V10.309C21.4695 9.97262 21.2469 9.75 20.9105 9.75H16.2192H16.2175ZM28.392 16.4515H30.9611C31.2959 16.4515 31.5201 16.6741 31.5201 17.0089C31.5201 17.3453 31.1854 17.5679 30.9611 17.5679H28.7268C28.392 17.68 28.0573 17.4557 27.9468 17.2331C27.9468 16.8984 28.0573 16.4515 28.392 16.4515ZM15.7723 18.6842V19.8022H16.8886V18.6842H15.7723ZM24.037 18.6842V19.8022H25.1534V18.6842H24.037ZM28.392 18.6842H30.9611C31.2959 18.6842 31.5201 18.9085 31.5201 19.2432C31.5201 19.578 31.1854 19.8022 30.9611 19.8022H28.7268C28.392 19.9128 28.0573 19.6885 27.9468 19.4659C27.833 19.2432 28.0573 18.7948 28.392 18.6842ZM23.1433 20.6944L22.3616 21.476L23.1433 22.2592L23.9249 21.476L23.1449 20.696L23.1433 20.6944ZM17.5598 20.8081L16.7781 21.5881L17.5582 22.3698L18.3414 21.5898L17.5598 20.8065V20.8081ZM28.392 20.9186H30.9611C31.2959 20.9186 31.5201 21.1412 31.5201 21.476C31.5201 21.8124 31.1854 22.035 30.9611 22.035H28.7268C28.392 22.1471 28.0573 21.9229 27.9468 21.7003C27.9468 21.3655 28.0573 21.0308 28.392 20.9186ZM19.7925 21.7003V22.8166H20.9089V21.7003H19.7925ZM33.1955 22.035H36.5447V23.1514H33.1955V22.035ZM28.392 23.1514H30.9611C31.2959 23.1514 31.5201 23.3756 31.5201 23.7104C31.5201 24.0451 31.1854 24.2694 30.9611 24.2694H28.7268C28.392 24.3799 28.0573 24.1573 27.9468 23.9346C27.833 23.7104 28.0573 23.2635 28.392 23.1514ZM33.1955 24.2694H36.5447V25.3857H33.1955V24.2694ZM24.8186 25.3857H25.935V28.2896C25.6003 28.1775 25.155 28.0654 24.8186 27.9549V25.3857ZM28.3936 25.3857H30.9611C31.2959 25.3857 31.5201 25.6084 31.5201 25.9447C31.5201 26.2795 31.1854 26.5021 30.9611 26.5021H28.7268C28.392 26.6143 28.0573 26.3916 27.9468 26.1674C27.9468 25.8326 28.0589 25.4979 28.3936 25.3857ZM33.1955 26.5021H36.5447V27.6201H33.1955V26.5021ZM28.392 27.6201H30.9611C31.2959 27.6201 31.5201 27.8428 31.5201 28.1775C31.5201 28.5123 31.1854 28.7365 30.9611 28.7365H28.7268C28.392 28.8486 28.0573 28.6244 27.9468 28.4018C27.833 28.1775 28.0573 27.7306 28.392 27.6201ZM33.1955 28.7365H36.5447V29.8529H33.1955V28.7365Z" fill="white"/>
</g>
<defs>
<clipPath id="clip0_46_131">
<rect width="52" height="52" fill="white"/>
</clipPath>
</defs>
</svg>
